M48
;GenerationSoftware,Autodesk,EAGLE,9.7.0*%
;CreationDate,2025-03-31T19:59:19Z*%
FMAT,2
ICI,OFF
METRIC,TZ,000.000
T3C0.300
T2C0.350
T1C0.650
%
G90
M71
T1
X133427Y32050
X133427Y26270
T2
X-13700Y67800
X-13200Y63700
X-28300Y61300
X-27200Y61600
X-26500Y66400
X-28800Y66400
X-20900Y66300
X-3900Y78600
X21400Y74500
X33800Y81100
X-24800Y48500
X-25600Y44700
X-24300Y37700
X-24300Y40600
X9700Y23200
X12300Y22100
X13400Y22100
X2800Y30100
X2700Y32300
X-800Y37900
X60500Y28500
X61300Y24400
X54400Y-7000
X56200Y-7100
X20000Y80501
X120400Y27600
X120400Y24700
X120600Y22500
X125600Y-20600
X127100Y-15900
X131000Y-7500
X133100Y20800
X-25000Y19400
X-26600Y17800
X67300Y-11200
X64400Y-11300
X59000Y-11000
X58100Y-7800
X59000Y-8800
X57817Y-8800
X57500Y-6600
X61400Y-6300
X59200Y-6500
X64200Y-6800
X65900Y-6800
X67400Y-6500
X64900Y21100
X63900Y22500
X86900Y12200
X93700Y16800
X93800Y18600
X96600Y20000
X99400Y24200
X99500Y27100
X113100Y27000
X103600Y27600
X100000Y28200
X19500Y22000
X58400Y24000
X53300Y-6100
X50400Y-6000
X57600Y-3300
X96400Y13600
X97461Y13900
X4000Y79500
X7300Y23547
X66600Y14916
X90398Y22456
X128800Y-4400
X-3800Y32882
X-24070Y66530
X-9100Y81110
X-6400Y80300
X-6100Y81209
X54674Y22900
X106400Y-4400
X-1500Y44653
X129300Y26700
X127800Y24200
X108177Y26981
X-15600Y15100
X-15400Y39147
X-3400Y43900
X-3247Y24900
X-3247Y24100
X111200Y28900
X112800Y30600
X98400Y17600
X96600Y17600
X54700Y100
X61400Y19500
X-21700Y65400
X-24000Y58400
X-23700Y48400
X-26000Y23000
X-24800Y17200
X-23800Y18200
X-22000Y21400
X-21100Y22900
X4600Y31400
X3500Y26800
X1800Y24000
X-16700Y21400
X-16700Y23700
X1100Y31500
X-2200Y18700
X-13953Y21530
X-1753Y36769
X-13853Y19226
X-1800Y22194
X5900Y22400
X10000Y17800
X17100Y21300
X-16666Y17166
X16946Y23300
X9900Y32500
X-3300Y22700
X-11500Y22753
X-16000Y22453
X-2300Y36100
X-22000Y60500
X-23547Y60500
X-14700Y18100
X14500Y17760
X14500Y16547
X12955Y21469
X13500Y18600
X-8500Y16800
X-2800Y16700
X47900Y-11900
X49100Y-10700
X53061Y2380
X56400Y-1100
X62000Y6200
X63700Y2600
X63200Y-1500
X66900Y1600
X50200Y-13300
X65300Y-14000
X45300Y3100
X45230Y-5130
X65300Y-13200
X56600Y-12847
X46100Y-11200
X46100Y-10100
X13500Y77000
X-5100Y80800
X-1900Y77400
X-1100Y61900
X-21100Y23759
X17500Y17000
X41200Y19500
X55500Y38200
X55600Y43100
X-14700Y18773
X-15400Y21412
X58200Y38800
X58200Y37300
X-13800Y23400
X-12800Y18800
X9980Y16876
X39947Y20253
X-15600Y13500
X-21500Y41500
X-21780Y16520
X-21841Y38759
X-15600Y15900
X-19800Y21400
X0Y81300
X0Y79169
X-2800Y44393
X54600Y-8300
X37900Y-14900
X33900Y-17400
X-10800Y23600
X-10400Y18500
X-10400Y12900
X-10364Y17013
X59954Y-8354
X-100Y36400
X9700Y24000
X10000Y18900
X-100Y33800
X400Y25100
X-3247Y23471
X22100Y80800
X400Y60400
X-300Y45700
X800Y79169
X30700Y39300
X41700Y39300
X53100Y37700
X-500Y43447
X123900Y-11700
X123700Y-6000
X51400Y23000
X-420Y60580
X-6000Y44000
X-8200Y44100
X51300Y-3000
X-15600Y14300
X-11600Y40700
X35400Y-16700
X125000Y-5300
X131600Y-5500
X51400Y24200
X104500Y-4700
X53492Y24700
X56090Y25010
X-800Y44947
X108925Y26875
X126100Y-4700
X131700Y-4700
X-10900Y44200
X-12950Y44150
X52675Y23675
X53492Y23900
X56500Y24531
T3
X130900Y30600
X127200Y21700
X129000Y28000
X125497Y25603
X129800Y28100
X127800Y25500
X119200Y25500
X119300Y23700
M30