ISO-10303-21;
HEADER;
/* Generated by software containing ST-Developer
 * from STEP Tools, Inc. (www.steptools.com) 
 */

FILE_DESCRIPTION(
/* description */ (''),
/* implementation_level */ '2;1');

FILE_NAME(
/* name */ 'LP584174 v1.step',
/* time_stamp */ '2025-04-14T23:08:43+03:00',
/* author */ (''),
/* organization */ (''),
/* preprocessor_version */ 'ST-DEVELOPER v20.1',
/* originating_system */ 'Autodesk Translation Framework v14.4.0.0',
/* authorisation */ '');

FILE_SCHEMA (('AUTOMOTIVE_DESIGN { 1 0 10303 214 3 1 1 }'));
ENDSEC;

DATA;
#10=MECHANICAL_DESIGN_GEOMETRIC_PRESENTATION_REPRESENTATION('',(#17,#18,
#19,#20,#21,#22),#652);
#11=ITEM_DEFINED_TRANSFORMATION($,$,#412,#437);
#12=(
REPRESENTATION_RELATIONSHIP($,$,#663,#662)
REPRESENTATION_RELATIONSHIP_WITH_TRANSFORMATION(#11)
SHAPE_REPRESENTATION_RELATIONSHIP()
);
#13=CONTEXT_DEPENDENT_SHAPE_REPRESENTATION(#12,#661);
#14=NEXT_ASSEMBLY_USAGE_OCCURRENCE('LP584174:1','LP584174:1',
'LP584174:1',#665,#666,'LP584174:1');
#15=SHAPE_REPRESENTATION_RELATIONSHIP('SRR','None',#663,#16);
#16=ADVANCED_BREP_SHAPE_REPRESENTATION('',(#23,#24,#25,#26),#651);
#17=STYLED_ITEM('',(#676),#23);
#18=STYLED_ITEM('',(#678),#377);
#19=STYLED_ITEM('',(#678),#380);
#20=STYLED_ITEM('',(#677),#24);
#21=STYLED_ITEM('',(#679),#25);
#22=STYLED_ITEM('',(#680),#26);
#23=MANIFOLD_SOLID_BREP('Body1',#395);
#24=MANIFOLD_SOLID_BREP('Body2',#396);
#25=MANIFOLD_SOLID_BREP('Body3',#397);
#26=MANIFOLD_SOLID_BREP('Body4',#398);
#27=FACE_OUTER_BOUND('',#51,.T.);
#28=FACE_OUTER_BOUND('',#52,.T.);
#29=FACE_OUTER_BOUND('',#53,.T.);
#30=FACE_OUTER_BOUND('',#54,.T.);
#31=FACE_OUTER_BOUND('',#55,.T.);
#32=FACE_OUTER_BOUND('',#56,.T.);
#33=FACE_OUTER_BOUND('',#57,.T.);
#34=FACE_OUTER_BOUND('',#58,.T.);
#35=FACE_OUTER_BOUND('',#59,.T.);
#36=FACE_OUTER_BOUND('',#60,.T.);
#37=FACE_OUTER_BOUND('',#61,.T.);
#38=FACE_OUTER_BOUND('',#62,.T.);
#39=FACE_OUTER_BOUND('',#63,.T.);
#40=FACE_OUTER_BOUND('',#64,.T.);
#41=FACE_OUTER_BOUND('',#65,.T.);
#42=FACE_OUTER_BOUND('',#66,.T.);
#43=FACE_OUTER_BOUND('',#67,.T.);
#44=FACE_OUTER_BOUND('',#68,.T.);
#45=FACE_OUTER_BOUND('',#69,.T.);
#46=FACE_OUTER_BOUND('',#70,.T.);
#47=FACE_OUTER_BOUND('',#71,.T.);
#48=FACE_OUTER_BOUND('',#72,.T.);
#49=FACE_OUTER_BOUND('',#73,.T.);
#50=FACE_OUTER_BOUND('',#74,.T.);
#51=EDGE_LOOP('',(#251,#252,#253,#254));
#52=EDGE_LOOP('',(#255,#256,#257,#258));
#53=EDGE_LOOP('',(#259,#260,#261,#262));
#54=EDGE_LOOP('',(#263,#264,#265,#266));
#55=EDGE_LOOP('',(#267,#268,#269,#270));
#56=EDGE_LOOP('',(#271,#272,#273,#274));
#57=EDGE_LOOP('',(#275,#276,#277,#278));
#58=EDGE_LOOP('',(#279,#280,#281,#282));
#59=EDGE_LOOP('',(#283,#284,#285,#286));
#60=EDGE_LOOP('',(#287,#288,#289,#290));
#61=EDGE_LOOP('',(#291,#292,#293,#294));
#62=EDGE_LOOP('',(#295,#296,#297,#298));
#63=EDGE_LOOP('',(#299,#300,#301,#302));
#64=EDGE_LOOP('',(#303,#304,#305,#306));
#65=EDGE_LOOP('',(#307,#308,#309,#310));
#66=EDGE_LOOP('',(#311,#312,#313,#314));
#67=EDGE_LOOP('',(#315,#316,#317,#318));
#68=EDGE_LOOP('',(#319,#320,#321,#322));
#69=EDGE_LOOP('',(#323,#324,#325,#326));
#70=EDGE_LOOP('',(#327,#328,#329,#330));
#71=EDGE_LOOP('',(#331,#332,#333,#334));
#72=EDGE_LOOP('',(#335,#336,#337,#338));
#73=EDGE_LOOP('',(#339,#340,#341,#342));
#74=EDGE_LOOP('',(#343,#344,#345,#346));
#75=LINE('',#545,#123);
#76=LINE('',#547,#124);
#77=LINE('',#549,#125);
#78=LINE('',#550,#126);
#79=LINE('',#553,#127);
#80=LINE('',#555,#128);
#81=LINE('',#556,#129);
#82=LINE('',#559,#130);
#83=LINE('',#560,#131);
#84=LINE('',#563,#132);
#85=LINE('',#564,#133);
#86=LINE('',#566,#134);
#87=LINE('',#571,#135);
#88=LINE('',#573,#136);
#89=LINE('',#575,#137);
#90=LINE('',#576,#138);
#91=LINE('',#579,#139);
#92=LINE('',#581,#140);
#93=LINE('',#582,#141);
#94=LINE('',#585,#142);
#95=LINE('',#586,#143);
#96=LINE('',#589,#144);
#97=LINE('',#590,#145);
#98=LINE('',#592,#146);
#99=LINE('',#597,#147);
#100=LINE('',#599,#148);
#101=LINE('',#601,#149);
#102=LINE('',#602,#150);
#103=LINE('',#605,#151);
#104=LINE('',#607,#152);
#105=LINE('',#608,#153);
#106=LINE('',#611,#154);
#107=LINE('',#612,#155);
#108=LINE('',#615,#156);
#109=LINE('',#616,#157);
#110=LINE('',#618,#158);
#111=LINE('',#623,#159);
#112=LINE('',#625,#160);
#113=LINE('',#627,#161);
#114=LINE('',#628,#162);
#115=LINE('',#631,#163);
#116=LINE('',#633,#164);
#117=LINE('',#634,#165);
#118=LINE('',#637,#166);
#119=LINE('',#638,#167);
#120=LINE('',#641,#168);
#121=LINE('',#642,#169);
#122=LINE('',#644,#170);
#123=VECTOR('',#444,10.);
#124=VECTOR('',#445,10.);
#125=VECTOR('',#446,10.);
#126=VECTOR('',#447,10.);
#127=VECTOR('',#450,10.);
#128=VECTOR('',#451,10.);
#129=VECTOR('',#452,10.);
#130=VECTOR('',#455,10.);
#131=VECTOR('',#456,10.);
#132=VECTOR('',#459,10.);
#133=VECTOR('',#460,10.);
#134=VECTOR('',#463,10.);
#135=VECTOR('',#468,10.);
#136=VECTOR('',#469,10.);
#137=VECTOR('',#470,10.);
#138=VECTOR('',#471,10.);
#139=VECTOR('',#474,10.);
#140=VECTOR('',#475,10.);
#141=VECTOR('',#476,10.);
#142=VECTOR('',#479,10.);
#143=VECTOR('',#480,10.);
#144=VECTOR('',#483,10.);
#145=VECTOR('',#484,10.);
#146=VECTOR('',#487,10.);
#147=VECTOR('',#492,10.);
#148=VECTOR('',#493,10.);
#149=VECTOR('',#494,10.);
#150=VECTOR('',#495,10.);
#151=VECTOR('',#498,10.);
#152=VECTOR('',#499,10.);
#153=VECTOR('',#500,10.);
#154=VECTOR('',#503,10.);
#155=VECTOR('',#504,10.);
#156=VECTOR('',#507,10.);
#157=VECTOR('',#508,10.);
#158=VECTOR('',#511,10.);
#159=VECTOR('',#516,10.);
#160=VECTOR('',#517,10.);
#161=VECTOR('',#518,10.);
#162=VECTOR('',#519,10.);
#163=VECTOR('',#522,10.);
#164=VECTOR('',#523,10.);
#165=VECTOR('',#524,10.);
#166=VECTOR('',#527,10.);
#167=VECTOR('',#528,10.);
#168=VECTOR('',#531,10.);
#169=VECTOR('',#532,10.);
#170=VECTOR('',#535,10.);
#171=VERTEX_POINT('',#543);
#172=VERTEX_POINT('',#544);
#173=VERTEX_POINT('',#546);
#174=VERTEX_POINT('',#548);
#175=VERTEX_POINT('',#552);
#176=VERTEX_POINT('',#554);
#177=VERTEX_POINT('',#558);
#178=VERTEX_POINT('',#562);
#179=VERTEX_POINT('',#569);
#180=VERTEX_POINT('',#570);
#181=VERTEX_POINT('',#572);
#182=VERTEX_POINT('',#574);
#183=VERTEX_POINT('',#578);
#184=VERTEX_POINT('',#580);
#185=VERTEX_POINT('',#584);
#186=VERTEX_POINT('',#588);
#187=VERTEX_POINT('',#595);
#188=VERTEX_POINT('',#596);
#189=VERTEX_POINT('',#598);
#190=VERTEX_POINT('',#600);
#191=VERTEX_POINT('',#604);
#192=VERTEX_POINT('',#606);
#193=VERTEX_POINT('',#610);
#194=VERTEX_POINT('',#614);
#195=VERTEX_POINT('',#621);
#196=VERTEX_POINT('',#622);
#197=VERTEX_POINT('',#624);
#198=VERTEX_POINT('',#626);
#199=VERTEX_POINT('',#630);
#200=VERTEX_POINT('',#632);
#201=VERTEX_POINT('',#636);
#202=VERTEX_POINT('',#640);
#203=EDGE_CURVE('',#171,#172,#75,.T.);
#204=EDGE_CURVE('',#173,#171,#76,.T.);
#205=EDGE_CURVE('',#174,#173,#77,.T.);
#206=EDGE_CURVE('',#172,#174,#78,.T.);
#207=EDGE_CURVE('',#175,#174,#79,.T.);
#208=EDGE_CURVE('',#176,#175,#80,.T.);
#209=EDGE_CURVE('',#172,#176,#81,.T.);
#210=EDGE_CURVE('',#173,#177,#82,.T.);
#211=EDGE_CURVE('',#177,#175,#83,.T.);
#212=EDGE_CURVE('',#176,#178,#84,.T.);
#213=EDGE_CURVE('',#178,#177,#85,.T.);
#214=EDGE_CURVE('',#178,#171,#86,.T.);
#215=EDGE_CURVE('',#179,#180,#87,.T.);
#216=EDGE_CURVE('',#181,#179,#88,.T.);
#217=EDGE_CURVE('',#182,#181,#89,.T.);
#218=EDGE_CURVE('',#180,#182,#90,.T.);
#219=EDGE_CURVE('',#183,#180,#91,.T.);
#220=EDGE_CURVE('',#183,#184,#92,.T.);
#221=EDGE_CURVE('',#184,#179,#93,.T.);
#222=EDGE_CURVE('',#182,#185,#94,.T.);
#223=EDGE_CURVE('',#185,#183,#95,.T.);
#224=EDGE_CURVE('',#186,#181,#96,.T.);
#225=EDGE_CURVE('',#186,#185,#97,.T.);
#226=EDGE_CURVE('',#184,#186,#98,.T.);
#227=EDGE_CURVE('',#187,#188,#99,.T.);
#228=EDGE_CURVE('',#189,#187,#100,.T.);
#229=EDGE_CURVE('',#190,#189,#101,.T.);
#230=EDGE_CURVE('',#188,#190,#102,.T.);
#231=EDGE_CURVE('',#191,#187,#103,.T.);
#232=EDGE_CURVE('',#192,#191,#104,.T.);
#233=EDGE_CURVE('',#192,#189,#105,.T.);
#234=EDGE_CURVE('',#193,#188,#106,.T.);
#235=EDGE_CURVE('',#191,#193,#107,.T.);
#236=EDGE_CURVE('',#194,#190,#108,.T.);
#237=EDGE_CURVE('',#193,#194,#109,.T.);
#238=EDGE_CURVE('',#194,#192,#110,.T.);
#239=EDGE_CURVE('',#195,#196,#111,.T.);
#240=EDGE_CURVE('',#197,#195,#112,.T.);
#241=EDGE_CURVE('',#198,#197,#113,.T.);
#242=EDGE_CURVE('',#196,#198,#114,.T.);
#243=EDGE_CURVE('',#199,#195,#115,.T.);
#244=EDGE_CURVE('',#200,#199,#116,.T.);
#245=EDGE_CURVE('',#200,#197,#117,.T.);
#246=EDGE_CURVE('',#201,#196,#118,.T.);
#247=EDGE_CURVE('',#199,#201,#119,.T.);
#248=EDGE_CURVE('',#202,#198,#120,.T.);
#249=EDGE_CURVE('',#201,#202,#121,.T.);
#250=EDGE_CURVE('',#202,#200,#122,.T.);
#251=ORIENTED_EDGE('',*,*,#203,.F.);
#252=ORIENTED_EDGE('',*,*,#204,.F.);
#253=ORIENTED_EDGE('',*,*,#205,.F.);
#254=ORIENTED_EDGE('',*,*,#206,.F.);
#255=ORIENTED_EDGE('',*,*,#206,.T.);
#256=ORIENTED_EDGE('',*,*,#207,.F.);
#257=ORIENTED_EDGE('',*,*,#208,.F.);
#258=ORIENTED_EDGE('',*,*,#209,.F.);
#259=ORIENTED_EDGE('',*,*,#205,.T.);
#260=ORIENTED_EDGE('',*,*,#210,.T.);
#261=ORIENTED_EDGE('',*,*,#211,.T.);
#262=ORIENTED_EDGE('',*,*,#207,.T.);
#263=ORIENTED_EDGE('',*,*,#212,.F.);
#264=ORIENTED_EDGE('',*,*,#208,.T.);
#265=ORIENTED_EDGE('',*,*,#211,.F.);
#266=ORIENTED_EDGE('',*,*,#213,.F.);
#267=ORIENTED_EDGE('',*,*,#204,.T.);
#268=ORIENTED_EDGE('',*,*,#214,.F.);
#269=ORIENTED_EDGE('',*,*,#213,.T.);
#270=ORIENTED_EDGE('',*,*,#210,.F.);
#271=ORIENTED_EDGE('',*,*,#203,.T.);
#272=ORIENTED_EDGE('',*,*,#209,.T.);
#273=ORIENTED_EDGE('',*,*,#212,.T.);
#274=ORIENTED_EDGE('',*,*,#214,.T.);
#275=ORIENTED_EDGE('',*,*,#215,.F.);
#276=ORIENTED_EDGE('',*,*,#216,.F.);
#277=ORIENTED_EDGE('',*,*,#217,.F.);
#278=ORIENTED_EDGE('',*,*,#218,.F.);
#279=ORIENTED_EDGE('',*,*,#215,.T.);
#280=ORIENTED_EDGE('',*,*,#219,.F.);
#281=ORIENTED_EDGE('',*,*,#220,.T.);
#282=ORIENTED_EDGE('',*,*,#221,.T.);
#283=ORIENTED_EDGE('',*,*,#218,.T.);
#284=ORIENTED_EDGE('',*,*,#222,.T.);
#285=ORIENTED_EDGE('',*,*,#223,.T.);
#286=ORIENTED_EDGE('',*,*,#219,.T.);
#287=ORIENTED_EDGE('',*,*,#217,.T.);
#288=ORIENTED_EDGE('',*,*,#224,.F.);
#289=ORIENTED_EDGE('',*,*,#225,.T.);
#290=ORIENTED_EDGE('',*,*,#222,.F.);
#291=ORIENTED_EDGE('',*,*,#216,.T.);
#292=ORIENTED_EDGE('',*,*,#221,.F.);
#293=ORIENTED_EDGE('',*,*,#226,.T.);
#294=ORIENTED_EDGE('',*,*,#224,.T.);
#295=ORIENTED_EDGE('',*,*,#225,.F.);
#296=ORIENTED_EDGE('',*,*,#226,.F.);
#297=ORIENTED_EDGE('',*,*,#220,.F.);
#298=ORIENTED_EDGE('',*,*,#223,.F.);
#299=ORIENTED_EDGE('',*,*,#227,.F.);
#300=ORIENTED_EDGE('',*,*,#228,.F.);
#301=ORIENTED_EDGE('',*,*,#229,.F.);
#302=ORIENTED_EDGE('',*,*,#230,.F.);
#303=ORIENTED_EDGE('',*,*,#228,.T.);
#304=ORIENTED_EDGE('',*,*,#231,.F.);
#305=ORIENTED_EDGE('',*,*,#232,.F.);
#306=ORIENTED_EDGE('',*,*,#233,.T.);
#307=ORIENTED_EDGE('',*,*,#227,.T.);
#308=ORIENTED_EDGE('',*,*,#234,.F.);
#309=ORIENTED_EDGE('',*,*,#235,.F.);
#310=ORIENTED_EDGE('',*,*,#231,.T.);
#311=ORIENTED_EDGE('',*,*,#230,.T.);
#312=ORIENTED_EDGE('',*,*,#236,.F.);
#313=ORIENTED_EDGE('',*,*,#237,.F.);
#314=ORIENTED_EDGE('',*,*,#234,.T.);
#315=ORIENTED_EDGE('',*,*,#229,.T.);
#316=ORIENTED_EDGE('',*,*,#233,.F.);
#317=ORIENTED_EDGE('',*,*,#238,.F.);
#318=ORIENTED_EDGE('',*,*,#236,.T.);
#319=ORIENTED_EDGE('',*,*,#235,.T.);
#320=ORIENTED_EDGE('',*,*,#237,.T.);
#321=ORIENTED_EDGE('',*,*,#238,.T.);
#322=ORIENTED_EDGE('',*,*,#232,.T.);
#323=ORIENTED_EDGE('',*,*,#239,.F.);
#324=ORIENTED_EDGE('',*,*,#240,.F.);
#325=ORIENTED_EDGE('',*,*,#241,.F.);
#326=ORIENTED_EDGE('',*,*,#242,.F.);
#327=ORIENTED_EDGE('',*,*,#240,.T.);
#328=ORIENTED_EDGE('',*,*,#243,.F.);
#329=ORIENTED_EDGE('',*,*,#244,.F.);
#330=ORIENTED_EDGE('',*,*,#245,.T.);
#331=ORIENTED_EDGE('',*,*,#239,.T.);
#332=ORIENTED_EDGE('',*,*,#246,.F.);
#333=ORIENTED_EDGE('',*,*,#247,.F.);
#334=ORIENTED_EDGE('',*,*,#243,.T.);
#335=ORIENTED_EDGE('',*,*,#242,.T.);
#336=ORIENTED_EDGE('',*,*,#248,.F.);
#337=ORIENTED_EDGE('',*,*,#249,.F.);
#338=ORIENTED_EDGE('',*,*,#246,.T.);
#339=ORIENTED_EDGE('',*,*,#241,.T.);
#340=ORIENTED_EDGE('',*,*,#245,.F.);
#341=ORIENTED_EDGE('',*,*,#250,.F.);
#342=ORIENTED_EDGE('',*,*,#248,.T.);
#343=ORIENTED_EDGE('',*,*,#247,.T.);
#344=ORIENTED_EDGE('',*,*,#249,.T.);
#345=ORIENTED_EDGE('',*,*,#250,.T.);
#346=ORIENTED_EDGE('',*,*,#244,.T.);
#347=PLANE('',#413);
#348=PLANE('',#414);
#349=PLANE('',#415);
#350=PLANE('',#416);
#351=PLANE('',#417);
#352=PLANE('',#418);
#353=PLANE('',#419);
#354=PLANE('',#420);
#355=PLANE('',#421);
#356=PLANE('',#422);
#357=PLANE('',#423);
#358=PLANE('',#424);
#359=PLANE('',#425);
#360=PLANE('',#426);
#361=PLANE('',#427);
#362=PLANE('',#428);
#363=PLANE('',#429);
#364=PLANE('',#430);
#365=PLANE('',#431);
#366=PLANE('',#432);
#367=PLANE('',#433);
#368=PLANE('',#434);
#369=PLANE('',#435);
#370=PLANE('',#436);
#371=ADVANCED_FACE('',(#27),#347,.F.);
#372=ADVANCED_FACE('',(#28),#348,.T.);
#373=ADVANCED_FACE('',(#29),#349,.T.);
#374=ADVANCED_FACE('',(#30),#350,.T.);
#375=ADVANCED_FACE('',(#31),#351,.T.);
#376=ADVANCED_FACE('',(#32),#352,.F.);
#377=ADVANCED_FACE('',(#33),#353,.F.);
#378=ADVANCED_FACE('',(#34),#354,.T.);
#379=ADVANCED_FACE('',(#35),#355,.T.);
#380=ADVANCED_FACE('',(#36),#356,.T.);
#381=ADVANCED_FACE('',(#37),#357,.T.);
#382=ADVANCED_FACE('',(#38),#358,.F.);
#383=ADVANCED_FACE('',(#39),#359,.F.);
#384=ADVANCED_FACE('',(#40),#360,.T.);
#385=ADVANCED_FACE('',(#41),#361,.T.);
#386=ADVANCED_FACE('',(#42),#362,.T.);
#387=ADVANCED_FACE('',(#43),#363,.T.);
#388=ADVANCED_FACE('',(#44),#364,.F.);
#389=ADVANCED_FACE('',(#45),#365,.F.);
#390=ADVANCED_FACE('',(#46),#366,.T.);
#391=ADVANCED_FACE('',(#47),#367,.T.);
#392=ADVANCED_FACE('',(#48),#368,.T.);
#393=ADVANCED_FACE('',(#49),#369,.T.);
#394=ADVANCED_FACE('',(#50),#370,.F.);
#395=CLOSED_SHELL('',(#371,#372,#373,#374,#375,#376));
#396=CLOSED_SHELL('',(#377,#378,#379,#380,#381,#382));
#397=CLOSED_SHELL('',(#383,#384,#385,#386,#387,#388));
#398=CLOSED_SHELL('',(#389,#390,#391,#392,#393,#394));
#399=DERIVED_UNIT_ELEMENT(#401,1.);
#400=DERIVED_UNIT_ELEMENT(#654,-3.);
#401=(
MASS_UNIT()
NAMED_UNIT(*)
SI_UNIT(.KILO.,.GRAM.)
);
#402=DERIVED_UNIT((#399,#400));
#403=MEASURE_REPRESENTATION_ITEM('density measure',
POSITIVE_RATIO_MEASURE(7850.),#402);
#404=PROPERTY_DEFINITION_REPRESENTATION(#409,#406);
#405=PROPERTY_DEFINITION_REPRESENTATION(#410,#407);
#406=REPRESENTATION('material name',(#408),#651);
#407=REPRESENTATION('density',(#403),#651);
#408=DESCRIPTIVE_REPRESENTATION_ITEM('Steel','Steel');
#409=PROPERTY_DEFINITION('material property','material name',#666);
#410=PROPERTY_DEFINITION('material property','density of part',#666);
#411=AXIS2_PLACEMENT_3D('',#540,#438,#439);
#412=AXIS2_PLACEMENT_3D('',#541,#440,#441);
#413=AXIS2_PLACEMENT_3D('',#542,#442,#443);
#414=AXIS2_PLACEMENT_3D('',#551,#448,#449);
#415=AXIS2_PLACEMENT_3D('',#557,#453,#454);
#416=AXIS2_PLACEMENT_3D('',#561,#457,#458);
#417=AXIS2_PLACEMENT_3D('',#565,#461,#462);
#418=AXIS2_PLACEMENT_3D('',#567,#464,#465);
#419=AXIS2_PLACEMENT_3D('',#568,#466,#467);
#420=AXIS2_PLACEMENT_3D('',#577,#472,#473);
#421=AXIS2_PLACEMENT_3D('',#583,#477,#478);
#422=AXIS2_PLACEMENT_3D('',#587,#481,#482);
#423=AXIS2_PLACEMENT_3D('',#591,#485,#486);
#424=AXIS2_PLACEMENT_3D('',#593,#488,#489);
#425=AXIS2_PLACEMENT_3D('',#594,#490,#491);
#426=AXIS2_PLACEMENT_3D('',#603,#496,#497);
#427=AXIS2_PLACEMENT_3D('',#609,#501,#502);
#428=AXIS2_PLACEMENT_3D('',#613,#505,#506);
#429=AXIS2_PLACEMENT_3D('',#617,#509,#510);
#430=AXIS2_PLACEMENT_3D('',#619,#512,#513);
#431=AXIS2_PLACEMENT_3D('',#620,#514,#515);
#432=AXIS2_PLACEMENT_3D('',#629,#520,#521);
#433=AXIS2_PLACEMENT_3D('',#635,#525,#526);
#434=AXIS2_PLACEMENT_3D('',#639,#529,#530);
#435=AXIS2_PLACEMENT_3D('',#643,#533,#534);
#436=AXIS2_PLACEMENT_3D('',#645,#536,#537);
#437=AXIS2_PLACEMENT_3D('',#646,#538,#539);
#438=DIRECTION('axis',(0.,0.,1.));
#439=DIRECTION('refdir',(1.,0.,0.));
#440=DIRECTION('axis',(0.,0.,1.));
#441=DIRECTION('refdir',(1.,0.,0.));
#442=DIRECTION('center_axis',(-1.,0.,0.));
#443=DIRECTION('ref_axis',(0.,0.,1.));
#444=DIRECTION('',(0.,-1.,0.));
#445=DIRECTION('',(0.,0.,-1.));
#446=DIRECTION('',(0.,1.,0.));
#447=DIRECTION('',(0.,0.,1.));
#448=DIRECTION('center_axis',(0.,-1.,0.));
#449=DIRECTION('ref_axis',(1.,0.,0.));
#450=DIRECTION('',(1.,0.,0.));
#451=DIRECTION('',(0.,0.,1.));
#452=DIRECTION('',(-1.,0.,0.));
#453=DIRECTION('center_axis',(0.,0.,1.));
#454=DIRECTION('ref_axis',(1.,0.,0.));
#455=DIRECTION('',(-1.,0.,0.));
#456=DIRECTION('',(0.,-1.,0.));
#457=DIRECTION('center_axis',(-1.,0.,0.));
#458=DIRECTION('ref_axis',(0.,-1.,0.));
#459=DIRECTION('',(0.,1.,0.));
#460=DIRECTION('',(0.,0.,1.));
#461=DIRECTION('center_axis',(0.,1.,0.));
#462=DIRECTION('ref_axis',(-1.,0.,0.));
#463=DIRECTION('',(1.,0.,0.));
#464=DIRECTION('center_axis',(0.,0.,1.));
#465=DIRECTION('ref_axis',(1.,0.,0.));
#466=DIRECTION('center_axis',(0.,0.,-1.));
#467=DIRECTION('ref_axis',(-1.,0.,0.));
#468=DIRECTION('',(1.,0.,0.));
#469=DIRECTION('',(0.,1.,0.));
#470=DIRECTION('',(-1.,0.,0.));
#471=DIRECTION('',(0.,-1.,0.));
#472=DIRECTION('center_axis',(0.,1.,0.));
#473=DIRECTION('ref_axis',(-1.,0.,0.));
#474=DIRECTION('',(0.,0.,1.));
#475=DIRECTION('',(-1.,0.,0.));
#476=DIRECTION('',(0.,0.,1.));
#477=DIRECTION('center_axis',(1.,0.,0.));
#478=DIRECTION('ref_axis',(0.,0.,-1.));
#479=DIRECTION('',(0.,0.,-1.));
#480=DIRECTION('',(0.,1.,0.));
#481=DIRECTION('center_axis',(0.,-1.,0.));
#482=DIRECTION('ref_axis',(1.,0.,0.));
#483=DIRECTION('',(0.,0.,1.));
#484=DIRECTION('',(1.,0.,0.));
#485=DIRECTION('center_axis',(-1.,0.,0.));
#486=DIRECTION('ref_axis',(0.,-1.,0.));
#487=DIRECTION('',(0.,-1.,0.));
#488=DIRECTION('center_axis',(0.,0.,1.));
#489=DIRECTION('ref_axis',(1.,0.,0.));
#490=DIRECTION('center_axis',(0.,0.,-1.));
#491=DIRECTION('ref_axis',(-1.,0.,0.));
#492=DIRECTION('',(-1.,0.,0.));
#493=DIRECTION('',(0.,-1.,0.));
#494=DIRECTION('',(1.,0.,0.));
#495=DIRECTION('',(0.,1.,0.));
#496=DIRECTION('center_axis',(1.,0.,0.));
#497=DIRECTION('ref_axis',(0.,1.,0.));
#498=DIRECTION('',(0.,0.,1.));
#499=DIRECTION('',(0.,-1.,0.));
#500=DIRECTION('',(0.,0.,1.));
#501=DIRECTION('center_axis',(0.,-1.,0.));
#502=DIRECTION('ref_axis',(1.,0.,0.));
#503=DIRECTION('',(0.,0.,1.));
#504=DIRECTION('',(-1.,0.,0.));
#505=DIRECTION('center_axis',(-1.,0.,0.));
#506=DIRECTION('ref_axis',(0.,-1.,0.));
#507=DIRECTION('',(0.,0.,1.));
#508=DIRECTION('',(0.,1.,0.));
#509=DIRECTION('center_axis',(0.,1.,0.));
#510=DIRECTION('ref_axis',(-1.,0.,0.));
#511=DIRECTION('',(1.,0.,0.));
#512=DIRECTION('center_axis',(0.,0.,1.));
#513=DIRECTION('ref_axis',(-1.,0.,0.));
#514=DIRECTION('center_axis',(0.,0.,-1.));
#515=DIRECTION('ref_axis',(-1.,0.,0.));
#516=DIRECTION('',(-1.,0.,0.));
#517=DIRECTION('',(0.,-1.,0.));
#518=DIRECTION('',(1.,0.,0.));
#519=DIRECTION('',(0.,1.,0.));
#520=DIRECTION('center_axis',(1.,0.,0.));
#521=DIRECTION('ref_axis',(0.,1.,0.));
#522=DIRECTION('',(0.,0.,1.));
#523=DIRECTION('',(0.,-1.,0.));
#524=DIRECTION('',(0.,0.,1.));
#525=DIRECTION('center_axis',(0.,-1.,0.));
#526=DIRECTION('ref_axis',(1.,0.,0.));
#527=DIRECTION('',(0.,0.,1.));
#528=DIRECTION('',(-1.,0.,0.));
#529=DIRECTION('center_axis',(-1.,0.,0.));
#530=DIRECTION('ref_axis',(0.,-1.,0.));
#531=DIRECTION('',(0.,0.,1.));
#532=DIRECTION('',(0.,1.,0.));
#533=DIRECTION('center_axis',(0.,1.,0.));
#534=DIRECTION('ref_axis',(-1.,0.,0.));
#535=DIRECTION('',(1.,0.,0.));
#536=DIRECTION('center_axis',(0.,0.,1.));
#537=DIRECTION('ref_axis',(-1.,0.,0.));
#538=DIRECTION('',(0.,0.,1.));
#539=DIRECTION('',(1.,0.,0.));
#540=CARTESIAN_POINT('',(0.,0.,0.));
#541=CARTESIAN_POINT('',(0.,0.,0.));
#542=CARTESIAN_POINT('Origin',(-5.6,0.,0.));
#543=CARTESIAN_POINT('',(-5.6,41.9999990612268,0.));
#544=CARTESIAN_POINT('',(-5.6,0.,0.));
#545=CARTESIAN_POINT('',(-5.6,10.4999997653067,0.));
#546=CARTESIAN_POINT('',(-5.6,41.9999990612268,6.3));
#547=CARTESIAN_POINT('',(-5.6,41.9999990612268,0.));
#548=CARTESIAN_POINT('',(-5.6,0.,6.3));
#549=CARTESIAN_POINT('',(-5.6,10.4999997653067,6.3));
#550=CARTESIAN_POINT('',(-5.6,0.,0.));
#551=CARTESIAN_POINT('Origin',(-76.5,0.,0.));
#552=CARTESIAN_POINT('',(-76.5,0.,6.3));
#553=CARTESIAN_POINT('',(0.,0.,6.3));
#554=CARTESIAN_POINT('',(-76.5,0.,0.));
#555=CARTESIAN_POINT('',(-76.5,0.,0.));
#556=CARTESIAN_POINT('',(0.,0.,0.));
#557=CARTESIAN_POINT('Origin',(-38.25,20.9999995306134,6.3));
#558=CARTESIAN_POINT('',(-76.5,41.9999990612268,6.3));
#559=CARTESIAN_POINT('',(-76.5,41.9999990612268,6.3));
#560=CARTESIAN_POINT('',(-76.5,0.,6.3));
#561=CARTESIAN_POINT('Origin',(-76.5,41.9999990612268,0.));
#562=CARTESIAN_POINT('',(-76.5,41.9999990612268,0.));
#563=CARTESIAN_POINT('',(-76.5,0.,0.));
#564=CARTESIAN_POINT('',(-76.5,41.9999990612268,0.));
#565=CARTESIAN_POINT('Origin',(0.,41.9999990612268,0.));
#566=CARTESIAN_POINT('',(-76.5,41.9999990612268,0.));
#567=CARTESIAN_POINT('Origin',(-38.25,20.9999995306134,0.));
#568=CARTESIAN_POINT('Origin',(-3.90000012740493,20.9999995306134,6.4));
#569=CARTESIAN_POINT('',(-5.60000008940697,41.9999990612268,6.4));
#570=CARTESIAN_POINT('',(-0.600000165402887,41.9999990612268,6.4));
#571=CARTESIAN_POINT('',(-3.05000014640391,41.9999990612268,6.4));
#572=CARTESIAN_POINT('',(-5.60000008940697,0.,6.4));
#573=CARTESIAN_POINT('',(-5.60000008940697,31.4999992959201,6.4));
#574=CARTESIAN_POINT('',(-0.600000165402887,0.,6.4));
#575=CARTESIAN_POINT('',(-4.75000010840595,0.,6.4));
#576=CARTESIAN_POINT('',(-0.600000165402887,10.4999997653067,6.4));
#577=CARTESIAN_POINT('Origin',(-2.20000016540289,41.9999990612268,0.));
#578=CARTESIAN_POINT('',(-0.600000165402887,41.9999990612268,0.));
#579=CARTESIAN_POINT('',(-0.600000165402887,41.9999990612268,0.));
#580=CARTESIAN_POINT('',(-5.60000008940697,41.9999990612268,0.));
#581=CARTESIAN_POINT('',(-2.20000016540289,41.9999990612268,0.));
#582=CARTESIAN_POINT('',(-5.60000008940697,41.9999990612268,0.));
#583=CARTESIAN_POINT('Origin',(-0.600000165402887,0.,0.));
#584=CARTESIAN_POINT('',(-0.600000165402887,0.,0.));
#585=CARTESIAN_POINT('',(-0.600000165402887,0.,0.));
#586=CARTESIAN_POINT('',(-0.600000165402887,10.4999997653067,0.));
#587=CARTESIAN_POINT('Origin',(-5.60000008940697,0.,0.));
#588=CARTESIAN_POINT('',(-5.60000008940697,0.,0.));
#589=CARTESIAN_POINT('',(-5.60000008940697,0.,0.));
#590=CARTESIAN_POINT('',(-5.60000008940697,0.,0.));
#591=CARTESIAN_POINT('Origin',(-5.60000008940697,41.9999990612268,0.));
#592=CARTESIAN_POINT('',(-5.60000008940697,41.9999990612268,0.));
#593=CARTESIAN_POINT('Origin',(-3.90000012740493,20.9999995306134,0.));
#594=CARTESIAN_POINT('Origin',(-4.6000002682209,20.4999995417893,0.499999999999999));
#595=CARTESIAN_POINT('',(-3.60000029057264,5.99999986588955,0.499999999999999));
#596=CARTESIAN_POINT('',(-5.60000024586916,5.99999986588955,0.499999999999999));
#597=CARTESIAN_POINT('',(-5.10000025704503,5.99999986588955,0.499999999999999));
#598=CARTESIAN_POINT('',(-3.60000029057264,34.999999217689,0.499999999999999));
#599=CARTESIAN_POINT('',(-3.60000029057264,13.2499997038394,0.499999999999999));
#600=CARTESIAN_POINT('',(-5.60000024586916,34.999999217689,0.499999999999999));
#601=CARTESIAN_POINT('',(-4.10000027939677,34.999999217689,0.499999999999999));
#602=CARTESIAN_POINT('',(-5.60000024586916,27.7499993797392,0.499999999999999));
#603=CARTESIAN_POINT('Origin',(-3.60000029057264,5.99999986588955,-6.93889390390723E-16));
#604=CARTESIAN_POINT('',(-3.60000029057264,5.99999986588955,-6.93889390390723E-16));
#605=CARTESIAN_POINT('',(-3.60000029057264,5.99999986588955,-6.93889390390723E-16));
#606=CARTESIAN_POINT('',(-3.60000029057264,34.999999217689,-6.93889390390723E-16));
#607=CARTESIAN_POINT('',(-3.60000029057264,34.999999217689,-6.93889390390723E-16));
#608=CARTESIAN_POINT('',(-3.60000029057264,34.999999217689,-6.93889390390723E-16));
#609=CARTESIAN_POINT('Origin',(-5.60000024586916,5.99999986588955,-6.93889390390723E-16));
#610=CARTESIAN_POINT('',(-5.60000024586916,5.99999986588955,-6.93889390390723E-16));
#611=CARTESIAN_POINT('',(-5.60000024586916,5.99999986588955,-6.93889390390723E-16));
#612=CARTESIAN_POINT('',(-3.60000029057264,5.99999986588955,-6.93889390390723E-16));
#613=CARTESIAN_POINT('Origin',(-5.60000024586916,34.999999217689,-6.93889390390723E-16));
#614=CARTESIAN_POINT('',(-5.60000024586916,34.999999217689,-6.93889390390723E-16));
#615=CARTESIAN_POINT('',(-5.60000024586916,34.999999217689,-6.93889390390723E-16));
#616=CARTESIAN_POINT('',(-5.60000024586916,5.99999986588955,-6.93889390390723E-16));
#617=CARTESIAN_POINT('Origin',(-3.60000029057264,34.999999217689,-6.93889390390723E-16));
#618=CARTESIAN_POINT('',(-5.60000024586916,34.999999217689,-6.93889390390723E-16));
#619=CARTESIAN_POINT('Origin',(-4.6000002682209,20.4999995417893,-6.93889390390723E-16));
#620=CARTESIAN_POINT('Origin',(-4.60000033527613,20.4999995417893,0.899999999999999));
#621=CARTESIAN_POINT('',(-3.60000035762787,5.99999986588955,0.899999999999999));
#622=CARTESIAN_POINT('',(-5.60000031292439,5.99999986588955,0.899999999999999));
#623=CARTESIAN_POINT('',(-5.10000032410026,5.99999986588955,0.899999999999999));
#624=CARTESIAN_POINT('',(-3.60000035762787,34.999999217689,0.899999999999999));
#625=CARTESIAN_POINT('',(-3.60000035762787,13.2499997038394,0.899999999999999));
#626=CARTESIAN_POINT('',(-5.60000031292439,34.999999217689,0.899999999999999));
#627=CARTESIAN_POINT('',(-4.100000346452,34.999999217689,0.899999999999999));
#628=CARTESIAN_POINT('',(-5.60000031292439,27.7499993797392,0.899999999999999));
#629=CARTESIAN_POINT('Origin',(-3.60000035762787,5.99999986588955,0.499999999999999));
#630=CARTESIAN_POINT('',(-3.60000035762787,5.99999986588955,0.499999999999999));
#631=CARTESIAN_POINT('',(-3.60000035762787,5.99999986588955,0.499999999999999));
#632=CARTESIAN_POINT('',(-3.60000035762787,34.999999217689,0.499999999999999));
#633=CARTESIAN_POINT('',(-3.60000035762787,34.999999217689,0.499999999999999));
#634=CARTESIAN_POINT('',(-3.60000035762787,34.999999217689,0.499999999999999));
#635=CARTESIAN_POINT('Origin',(-5.60000031292439,5.99999986588955,0.499999999999999));
#636=CARTESIAN_POINT('',(-5.60000031292439,5.99999986588955,0.499999999999999));
#637=CARTESIAN_POINT('',(-5.60000031292439,5.99999986588955,0.499999999999999));
#638=CARTESIAN_POINT('',(-3.60000035762787,5.99999986588955,0.499999999999999));
#639=CARTESIAN_POINT('Origin',(-5.60000031292439,34.999999217689,0.499999999999999));
#640=CARTESIAN_POINT('',(-5.60000031292439,34.999999217689,0.499999999999999));
#641=CARTESIAN_POINT('',(-5.60000031292439,34.999999217689,0.499999999999999));
#642=CARTESIAN_POINT('',(-5.60000031292439,5.99999986588955,0.499999999999999));
#643=CARTESIAN_POINT('Origin',(-3.60000035762787,34.999999217689,0.499999999999999));
#644=CARTESIAN_POINT('',(-5.60000031292439,34.999999217689,0.499999999999999));
#645=CARTESIAN_POINT('Origin',(-4.60000033527613,20.4999995417893,0.499999999999999));
#646=CARTESIAN_POINT('',(0.,0.,0.));
#647=UNCERTAINTY_MEASURE_WITH_UNIT(LENGTH_MEASURE(0.01),#653,
'DISTANCE_ACCURACY_VALUE',
'Maximum model space distance between geometric entities at asserted c
onnectivities');
#648=UNCERTAINTY_MEASURE_WITH_UNIT(LENGTH_MEASURE(0.01),#653,
'DISTANCE_ACCURACY_VALUE',
'Maximum model space distance between geometric entities at asserted c
onnectivities');
#649=UNCERTAINTY_MEASURE_WITH_UNIT(LENGTH_MEASURE(0.01),#653,
'DISTANCE_ACCURACY_VALUE',
'Maximum model space distance between geometric entities at asserted c
onnectivities');
#650=(
GEOMETRIC_REPRESENTATION_CONTEXT(3)
GLOBAL_UNCERTAINTY_ASSIGNED_CONTEXT((#647))
GLOBAL_UNIT_ASSIGNED_CONTEXT((#653,#655,#656))
REPRESENTATION_CONTEXT('','3D')
);
#651=(
GEOMETRIC_REPRESENTATION_CONTEXT(3)
GLOBAL_UNCERTAINTY_ASSIGNED_CONTEXT((#648))
GLOBAL_UNIT_ASSIGNED_CONTEXT((#653,#655,#656))
REPRESENTATION_CONTEXT('','3D')
);
#652=(
GEOMETRIC_REPRESENTATION_CONTEXT(3)
GLOBAL_UNCERTAINTY_ASSIGNED_CONTEXT((#649))
GLOBAL_UNIT_ASSIGNED_CONTEXT((#653,#655,#656))
REPRESENTATION_CONTEXT('','3D')
);
#653=(
LENGTH_UNIT()
NAMED_UNIT(*)
SI_UNIT(.MILLI.,.METRE.)
);
#654=(
LENGTH_UNIT()
NAMED_UNIT(*)
SI_UNIT($,.METRE.)
);
#655=(
NAMED_UNIT(*)
PLANE_ANGLE_UNIT()
SI_UNIT($,.RADIAN.)
);
#656=(
NAMED_UNIT(*)
SI_UNIT($,.STERADIAN.)
SOLID_ANGLE_UNIT()
);
#657=SHAPE_DEFINITION_REPRESENTATION(#659,#662);
#658=SHAPE_DEFINITION_REPRESENTATION(#660,#663);
#659=PRODUCT_DEFINITION_SHAPE('',$,#665);
#660=PRODUCT_DEFINITION_SHAPE('',$,#666);
#661=PRODUCT_DEFINITION_SHAPE($,$,#14);
#662=SHAPE_REPRESENTATION('',(#411,#437),#650);
#663=SHAPE_REPRESENTATION('',(#412),#651);
#664=PRODUCT_DEFINITION_CONTEXT('part definition',#672,'design');
#665=PRODUCT_DEFINITION('LP584174','LP584174 v1',#667,#664);
#666=PRODUCT_DEFINITION('LP584174_1','LP584174',#668,#664);
#667=PRODUCT_DEFINITION_FORMATION('',$,#674);
#668=PRODUCT_DEFINITION_FORMATION('',$,#675);
#669=PRODUCT_RELATED_PRODUCT_CATEGORY('LP584174 v1','LP584174 v1',(#674));
#670=PRODUCT_RELATED_PRODUCT_CATEGORY('LP584174','LP584174',(#675));
#671=APPLICATION_PROTOCOL_DEFINITION('international standard',
'automotive_design',2009,#672);
#672=APPLICATION_CONTEXT(
'Core Data for Automotive Mechanical Design Process');
#673=PRODUCT_CONTEXT('part definition',#672,'mechanical');
#674=PRODUCT('LP584174','LP584174 v1',$,(#673));
#675=PRODUCT('LP584174_1','LP584174',$,(#673));
#676=PRESENTATION_STYLE_ASSIGNMENT((#681));
#677=PRESENTATION_STYLE_ASSIGNMENT((#682));
#678=PRESENTATION_STYLE_ASSIGNMENT((#683));
#679=PRESENTATION_STYLE_ASSIGNMENT((#684));
#680=PRESENTATION_STYLE_ASSIGNMENT((#685));
#681=SURFACE_STYLE_USAGE(.BOTH.,#686);
#682=SURFACE_STYLE_USAGE(.BOTH.,#687);
#683=SURFACE_STYLE_USAGE(.BOTH.,#688);
#684=SURFACE_STYLE_USAGE(.BOTH.,#689);
#685=SURFACE_STYLE_USAGE(.BOTH.,#690);
#686=SURFACE_SIDE_STYLE('',(#691));
#687=SURFACE_SIDE_STYLE('',(#692));
#688=SURFACE_SIDE_STYLE('',(#693));
#689=SURFACE_SIDE_STYLE('',(#694));
#690=SURFACE_SIDE_STYLE('',(#695));
#691=SURFACE_STYLE_FILL_AREA(#696);
#692=SURFACE_STYLE_FILL_AREA(#697);
#693=SURFACE_STYLE_FILL_AREA(#698);
#694=SURFACE_STYLE_FILL_AREA(#699);
#695=SURFACE_STYLE_FILL_AREA(#700);
#696=FILL_AREA_STYLE('Steel - Satin',(#701));
#697=FILL_AREA_STYLE('Glass (Clear)',(#702));
#698=FILL_AREA_STYLE('Paint - Enamel Glossy (Yellow)',(#703));
#699=FILL_AREA_STYLE('Aluminum - Bead Blasted',(#704));
#700=FILL_AREA_STYLE('Paint - Enamel Glossy (Green)',(#705));
#701=FILL_AREA_STYLE_COLOUR('Steel - Satin',#706);
#702=FILL_AREA_STYLE_COLOUR('Glass (Clear)',#707);
#703=FILL_AREA_STYLE_COLOUR('Paint - Enamel Glossy (Yellow)',#708);
#704=FILL_AREA_STYLE_COLOUR('Aluminum - Bead Blasted',#709);
#705=FILL_AREA_STYLE_COLOUR('Paint - Enamel Glossy (Green)',#710);
#706=COLOUR_RGB('Steel - Satin',0.627450980392157,0.627450980392157,0.627450980392157);
#707=COLOUR_RGB('Glass (Clear)',0.964705882352941,0.964705882352941,0.952941176470588);
#708=COLOUR_RGB('Paint - Enamel Glossy (Yellow)',0.909803921568627,0.67843137254902,
0.137254901960784);
#709=COLOUR_RGB('Aluminum - Bead Blasted',0.96078431372549,0.96078431372549,
0.964705882352941);
#710=COLOUR_RGB('Paint - Enamel Glossy (Green)',0.266666666666667,0.588235294117647,
0.282352941176471);
ENDSEC;
END-ISO-10303-21;
